<?xml version="1.0" encoding="UTF-8" standalone="no"?>
<svg
   version="1.1"
   viewBox="0 0 302.51688 302.51688"
   height="300.29172"
   width="300.29172"
   id="svg44142"
   sodipodi:docname="logo.svg"
   inkscape:version="1.1.2 (1:1.1+202202050950+0a00cf5339)"
   xmlns:inkscape="http://www.inkscape.org/namespaces/inkscape"
   xmlns:sodipodi="http://sodipodi.sourceforge.net/DTD/sodipodi-0.dtd"
   xmlns:xlink="http://www.w3.org/1999/xlink"
   xmlns="http://www.w3.org/2000/svg"
   xmlns:svg="http://www.w3.org/2000/svg">
  <sodipodi:namedview
     id="namedview44144"
     pagecolor="#505050"
     bordercolor="#eeeeee"
     borderopacity="1"
     inkscape:pageshadow="0"
     inkscape:pageopacity="0"
     inkscape:pagecheckerboard="0"
     showgrid="false"
     inkscape:zoom="1.8827158"
     inkscape:cx="288.9443"
     inkscape:cy="41.16394"
     inkscape:current-layer="svg44142"
     inkscape:snap-page="true" />
  <defs
     id="defs44046">
    <linearGradient
       id="a">
      <stop
         offset="0"
         stop-color="#5b3a0a"
         stop-opacity="1"
         id="stop43889" />
      <stop
         offset=".071"
         stop-color="#704f1b"
         stop-opacity="1"
         id="stop43891" />
      <stop
         offset=".143"
         stop-color="#86652d"
         stop-opacity="1"
         id="stop43893" />
      <stop
         offset=".214"
         stop-color="#9c7d3f"
         stop-opacity="1"
         id="stop43895" />
      <stop
         offset=".286"
         stop-color="#b29551"
         stop-opacity="1"
         id="stop43897" />
      <stop
         offset=".357"
         stop-color="#c8ad65"
         stop-opacity="1"
         id="stop43899" />
      <stop
         offset=".429"
         stop-color="#ddc77a"
         stop-opacity="1"
         id="stop43901" />
      <stop
         offset=".5"
         stop-color="#f3e18f"
         stop-opacity="1"
         id="stop43903" />
      <stop
         offset=".571"
         stop-color="#ddc77a"
         stop-opacity=".999"
         id="stop43905" />
      <stop
         offset=".643"
         stop-color="#c8ad65"
         stop-opacity=".999"
         id="stop43907" />
      <stop
         offset=".714"
         stop-color="#b29551"
         stop-opacity="1"
         id="stop43909" />
      <stop
         offset=".786"
         stop-color="#9c7d3f"
         stop-opacity="1"
         id="stop43911" />
      <stop
         offset=".857"
         stop-color="#86652d"
         stop-opacity="1"
         id="stop43913" />
      <stop
         offset=".929"
         stop-color="#704f1b"
         stop-opacity="1"
         id="stop43915" />
      <stop
         offset="1"
         stop-color="#5b3a0a"
         stop-opacity="1"
         id="stop43917" />
    </linearGradient>
    <linearGradient
       id="b">
      <stop
         offset="0"
         stop-color="#5b3a0a"
         stop-opacity="1"
         id="stop43920" />
      <stop
         offset=".071"
         stop-color="#704f1b"
         stop-opacity="1"
         id="stop43922" />
      <stop
         offset=".143"
         stop-color="#86652d"
         stop-opacity="1"
         id="stop43924" />
      <stop
         offset=".214"
         stop-color="#9c7d3f"
         stop-opacity="1"
         id="stop43926" />
      <stop
         offset=".286"
         stop-color="#b29551"
         stop-opacity="1"
         id="stop43928" />
      <stop
         offset=".357"
         stop-color="#c8ad65"
         stop-opacity="1"
         id="stop43930" />
      <stop
         offset=".429"
         stop-color="#ddc77a"
         stop-opacity="1"
         id="stop43932" />
      <stop
         offset=".5"
         stop-color="#f3e18f"
         stop-opacity="1"
         id="stop43934" />
      <stop
         offset=".571"
         stop-color="#ddc77a"
         stop-opacity=".999"
         id="stop43936" />
      <stop
         offset=".643"
         stop-color="#c8ad65"
         stop-opacity=".999"
         id="stop43938" />
      <stop
         offset=".714"
         stop-color="#b29551"
         stop-opacity="1"
         id="stop43940" />
      <stop
         offset=".786"
         stop-color="#9c7d3f"
         stop-opacity="1"
         id="stop43942" />
      <stop
         offset=".857"
         stop-color="#86652d"
         stop-opacity="1"
         id="stop43944" />
      <stop
         offset=".929"
         stop-color="#704f1b"
         stop-opacity="1"
         id="stop43946" />
      <stop
         offset="1"
         stop-color="#5b3a0a"
         stop-opacity="1"
         id="stop43948" />
    </linearGradient>
    <linearGradient
       xlink:href="#b"
       id="ab"
       x1="-23.386999"
       y1="327.272"
       x2="326.01199"
       y2="-22.667999"
       gradientUnits="userSpaceOnUse"
       gradientTransform="matrix(1.0036523,0,0,1.0036523,-0.40597,-0.40596956)" />
    <linearGradient
       xlink:href="#b"
       id="ad"
       x1="-25.815001"
       y1="324.89001"
       x2="326.733"
       y2="-11.021"
       gradientUnits="userSpaceOnUse"
       gradientTransform="matrix(1.0036523,0,0,1.0036523,-0.40597,-0.40596956)" />
    <linearGradient
       xlink:href="#b"
       id="f"
       x1="184.731"
       y1="132.842"
       x2="233.666"
       y2="35.534"
       gradientUnits="userSpaceOnUse"
       gradientTransform="translate(0.14594102,-0.43546046)" />
    <linearGradient
       xlink:href="#b"
       id="e"
       x1="192.282"
       y1="257.401"
       x2="255.819"
       y2="174.593"
       gradientUnits="userSpaceOnUse"
       gradientTransform="translate(0.14594102,-0.43546046)" />
    <linearGradient
       xlink:href="#b"
       id="g"
       x1="52.451"
       y1="263.97198"
       x2="124.88"
       y2="176.599"
       gradientUnits="userSpaceOnUse"
       gradientTransform="translate(0.14594102,-0.43546046)" />
    <linearGradient
       xlink:href="#b"
       id="d"
       x1="62.042999"
       y1="127.913"
       x2="112.69"
       y2="47.18"
       gradientUnits="userSpaceOnUse"
       gradientTransform="translate(0.14594102,-0.43546046)" />
    <linearGradient
       xlink:href="#b"
       id="i"
       x1="81.265999"
       y1="120.64"
       x2="213.521"
       y2="-41.960999"
       gradientUnits="userSpaceOnUse" />
    <linearGradient
       xlink:href="#b"
       id="O"
       x1="81.265999"
       y1="120.64"
       x2="213.521"
       y2="-41.960999"
       gradientUnits="userSpaceOnUse" />
    <linearGradient
       xlink:href="#b"
       id="u"
       x1="81.265999"
       y1="120.64"
       x2="213.256"
       y2="-41.960999"
       gradientUnits="userSpaceOnUse" />
    <linearGradient
       xlink:href="#b"
       id="G"
       x1="79.517998"
       y1="121.367"
       x2="213.256"
       y2="-41.960999"
       gradientUnits="userSpaceOnUse" />
    <linearGradient
       xlink:href="#b"
       id="y"
       x1="81.265999"
       y1="120.64"
       x2="213.256"
       y2="-41.960999"
       gradientUnits="userSpaceOnUse" />
    <linearGradient
       xlink:href="#b"
       id="k"
       x1="217.758"
       y1="226.196"
       x2="279.392"
       y2="93.856003"
       gradientUnits="userSpaceOnUse" />
    <linearGradient
       xlink:href="#b"
       id="s"
       x1="217.758"
       y1="226.196"
       x2="279.392"
       y2="93.856003"
       gradientUnits="userSpaceOnUse" />
    <linearGradient
       xlink:href="#b"
       id="I"
       x1="217.758"
       y1="226.196"
       x2="279.392"
       y2="93.856003"
       gradientUnits="userSpaceOnUse" />
    <linearGradient
       xlink:href="#b"
       id="A"
       x1="217.758"
       y1="226.196"
       x2="279.392"
       y2="93.856003"
       gradientUnits="userSpaceOnUse" />
    <linearGradient
       xlink:href="#b"
       id="Q"
       x1="217.758"
       y1="226.196"
       x2="279.392"
       y2="93.856003"
       gradientUnits="userSpaceOnUse" />
    <linearGradient
       xlink:href="#b"
       id="c"
       gradientUnits="userSpaceOnUse"
       gradientTransform="matrix(3.77954,0,0,3.77954,0.16894102,-0.17346046)"
       x1="28.111"
       y1="77.762001"
       x2="62.898998"
       y2="52.952999" />
    <linearGradient
       xlink:href="#b"
       id="K"
       x1="105.526"
       y1="294.78699"
       x2="237.308"
       y2="200.50101"
       gradientUnits="userSpaceOnUse" />
    <linearGradient
       xlink:href="#b"
       id="C"
       x1="105.526"
       y1="294.78699"
       x2="237.308"
       y2="200.50101"
       gradientUnits="userSpaceOnUse" />
    <linearGradient
       xlink:href="#b"
       id="m"
       x1="105.526"
       y1="294.78699"
       x2="237.308"
       y2="200.50101"
       gradientUnits="userSpaceOnUse" />
    <linearGradient
       xlink:href="#b"
       id="S"
       x1="105.526"
       y1="294.78699"
       x2="237.308"
       y2="200.50101"
       gradientUnits="userSpaceOnUse" />
    <linearGradient
       xlink:href="#b"
       id="q"
       x1="105.526"
       y1="294.78699"
       x2="237.308"
       y2="200.50101"
       gradientUnits="userSpaceOnUse" />
    <linearGradient
       xlink:href="#b"
       id="w"
       x1="25.23"
       y1="200.64101"
       x2="91.489998"
       y2="94.543999"
       gradientUnits="userSpaceOnUse" />
    <linearGradient
       xlink:href="#b"
       id="U"
       x1="25.23"
       y1="200.64101"
       x2="91.489998"
       y2="94.543999"
       gradientUnits="userSpaceOnUse" />
    <linearGradient
       xlink:href="#b"
       id="o"
       x1="25.23"
       y1="200.64101"
       x2="91.489998"
       y2="94.543999"
       gradientUnits="userSpaceOnUse" />
    <linearGradient
       xlink:href="#b"
       id="M"
       x1="25.23"
       y1="200.64101"
       x2="91.489998"
       y2="94.543999"
       gradientUnits="userSpaceOnUse" />
    <linearGradient
       xlink:href="#b"
       id="E"
       x1="25.23"
       y1="200.64101"
       x2="91.489998"
       y2="94.543999"
       gradientUnits="userSpaceOnUse" />
    <linearGradient
       xlink:href="#b"
       id="ac"
       x1="75.072998"
       y1="229.95799"
       x2="210.069"
       y2="69.315002"
       gradientUnits="userSpaceOnUse"
       gradientTransform="translate(0.14594102,-0.43546046)" />
    <linearGradient
       xlink:href="#b"
       id="aa"
       x1="73.801003"
       y1="229.854"
       x2="210.746"
       y2="71.383003"
       gradientUnits="userSpaceOnUse"
       gradientTransform="translate(0.14594102,-0.43546046)" />
    <linearGradient
       xlink:href="#b"
       id="Y"
       x1="73.801003"
       y1="229.854"
       x2="210.746"
       y2="71.383003"
       gradientUnits="userSpaceOnUse"
       gradientTransform="translate(0.14594102,-0.43546046)" />
    <linearGradient
       xlink:href="#b"
       id="Z"
       x1="73.801003"
       y1="229.854"
       x2="210.746"
       y2="71.383003"
       gradientUnits="userSpaceOnUse"
       gradientTransform="translate(0.14594102,-0.43546046)" />
    <linearGradient
       xlink:href="#b"
       id="X"
       x1="73.801003"
       y1="229.854"
       x2="210.746"
       y2="71.383003"
       gradientUnits="userSpaceOnUse"
       gradientTransform="translate(0.14594102,-0.43546046)" />
    <linearGradient
       xlink:href="#b"
       id="W"
       x1="73.801003"
       y1="229.854"
       x2="210.746"
       y2="71.383003"
       gradientUnits="userSpaceOnUse"
       gradientTransform="translate(0.14594102,-0.43546046)" />
    <linearGradient
       xlink:href="#b"
       id="V"
       x1="73.801003"
       y1="229.854"
       x2="210.746"
       y2="71.383003"
       gradientUnits="userSpaceOnUse"
       gradientTransform="translate(0.14594102,-0.43546046)" />
    <linearGradient
       xlink:href="#b"
       id="ae"
       x1="73.801003"
       y1="229.854"
       x2="210.746"
       y2="71.383003"
       gradientUnits="userSpaceOnUse"
       gradientTransform="translate(0.14594102,-0.43546046)" />
    <clipPath
       clipPathUnits="userSpaceOnUse"
       id="v">
      <path
         d="M 32.533,114.437 C 70.29,104.354 73.876,114.792 102.344,139.164 L 92.583,151.918 C 59.653,108.246 58.438,113.91 32.533,114.437 Z"
         fill="#50b38a"
         fill-opacity="1"
         stroke="none"
         stroke-width="12.2"
         stroke-linecap="round"
         stroke-linejoin="round"
         stroke-miterlimit="4"
         stroke-dasharray="none"
         stroke-opacity="1"
         stop-color="#000000"
         id="path43986" />
    </clipPath>
    <clipPath
       clipPathUnits="userSpaceOnUse"
       id="t">
      <path
         d="M 186.906,31.577 C 196.989,69.334 186.551,72.92 162.18,101.388 L 149.426,91.626 C 193.098,58.696 187.433,57.482 186.906,31.577 Z"
         fill="#50b38a"
         fill-opacity="1"
         stroke="none"
         stroke-width="12.2"
         stroke-linecap="round"
         stroke-linejoin="round"
         stroke-miterlimit="4"
         stroke-dasharray="none"
         stroke-opacity="1"
         stop-color="#000000"
         id="path43989" />
    </clipPath>
    <clipPath
       clipPathUnits="userSpaceOnUse"
       id="r">
      <path
         d="M 269.616,186.607 C 231.859,196.69 228.273,186.252 199.805,161.881 L 209.566,149.127 C 242.496,192.799 243.711,187.134 269.616,186.607 Z"
         fill="#50b38a"
         fill-opacity="1"
         stroke="none"
         stroke-width="12.2"
         stroke-linecap="round"
         stroke-linejoin="round"
         stroke-miterlimit="4"
         stroke-dasharray="none"
         stroke-opacity="1"
         stop-color="#000000"
         id="path43992" />
    </clipPath>
    <clipPath
       clipPathUnits="userSpaceOnUse"
       id="p">
      <path
         d="M 115.129,269.026 C 105.046,231.269 115.484,227.683 139.855,199.215 L 152.609,208.977 C 108.937,241.907 114.602,243.121 115.129,269.026 Z"
         opacity="1"
         fill="#50b38a"
         fill-opacity="1"
         stroke="none"
         stroke-width="12.2"
         stroke-linecap="round"
         stroke-linejoin="round"
         stroke-miterlimit="4"
         stroke-dasharray="none"
         stroke-opacity="1"
         stop-color="#000000"
         id="path43995" />
    </clipPath>
    <clipPath
       clipPathUnits="userSpaceOnUse"
       id="D">
      <path
         d="M 95.523,151.889 C 62.598,187.369 51.956,185.647 41.31,186.929 C 60.638,189.927 76.304,180.623 100.001,166.847 Z"
         opacity="1"
         fill="#50b38a"
         fill-opacity="1"
         stroke="none"
         stroke-width="16"
         stroke-linecap="round"
         stroke-linejoin="round"
         stroke-miterlimit="4"
         stroke-dasharray="none"
         stroke-opacity="1"
         stop-color="#000000"
         id="path43998" />
    </clipPath>
    <clipPath
       clipPathUnits="userSpaceOnUse"
       id="B">
      <path
         d="M 152.511,205.973 C 187.992,238.898 186.27,249.539 187.551,260.186 C 190.55,240.858 181.246,225.192 167.469,201.494 Z"
         opacity="1"
         fill="#50b38a"
         fill-opacity="1"
         stroke="none"
         stroke-width="16"
         stroke-linecap="round"
         stroke-linejoin="round"
         stroke-miterlimit="4"
         stroke-dasharray="none"
         stroke-opacity="1"
         stop-color="#000000"
         id="path44001" />
    </clipPath>
    <clipPath
       clipPathUnits="userSpaceOnUse"
       id="z">
      <path
         d="M 205.586,149.51 C 238.511,114.028 249.153,115.751 259.799,114.47 C 240.471,111.47 224.805,120.775 201.108,134.551 Z"
         opacity="1"
         fill="#50b38a"
         fill-opacity="1"
         stroke="none"
         stroke-width="16"
         stroke-linecap="round"
         stroke-linejoin="round"
         stroke-miterlimit="4"
         stroke-dasharray="none"
         stroke-opacity="1"
         stop-color="#000000"
         id="path44004" />
    </clipPath>
    <clipPath
       clipPathUnits="userSpaceOnUse"
       id="x">
      <path
         d="M 150.088,95.79 C 114.608,62.865 116.33,52.224 115.048,41.577 C 112.05,60.905 121.354,76.571 135.131,100.269 Z"
         opacity="1"
         fill="#50b38a"
         fill-opacity="1"
         stroke="none"
         stroke-width="16"
         stroke-linecap="round"
         stroke-linejoin="round"
         stroke-miterlimit="4"
         stroke-dasharray="none"
         stroke-opacity="1"
         stop-color="#000000"
         id="path44007" />
    </clipPath>
    <clipPath
       clipPathUnits="userSpaceOnUse"
       id="L">
      <path
         d="M 44.219,169.155 C 58.509,142.115 84.516,193.07 109.986,177.583 L 113.383,193.946 C 70.811,200.905 60.578,151.488 44.219,169.156 Z"
         opacity="1"
         fill="#50b38a"
         fill-opacity="1"
         stroke="none"
         stroke-width="16"
         stroke-linecap="round"
         stroke-linejoin="round"
         stroke-miterlimit="4"
         stroke-dasharray="none"
         stroke-opacity="1"
         stop-color="#000000"
         id="path44010" />
    </clipPath>
    <clipPath
       clipPathUnits="userSpaceOnUse"
       id="J">
      <path
         d="M 169.164,257.27 C 142.124,242.981 193.078,216.974 177.591,191.503 L 193.955,188.106 C 200.913,230.679 151.495,240.911 169.164,257.271 Z"
         opacity="1"
         fill="#50b38a"
         fill-opacity="1"
         stroke="none"
         stroke-width="16"
         stroke-linecap="round"
         stroke-linejoin="round"
         stroke-miterlimit="4"
         stroke-dasharray="none"
         stroke-opacity="1"
         stop-color="#000000"
         id="path44013" />
    </clipPath>
    <clipPath
       clipPathUnits="userSpaceOnUse"
       id="H">
      <path
         d="M 257.368,132.758 C 243.078,159.798 217.071,108.843 191.601,124.33 L 188.204,107.967 C 230.777,101.009 241.009,150.426 257.368,132.757 Z"
         opacity="1"
         fill="#50b38a"
         fill-opacity="1"
         stroke="none"
         stroke-width="16"
         stroke-linecap="round"
         stroke-linejoin="round"
         stroke-miterlimit="4"
         stroke-dasharray="none"
         stroke-opacity="1"
         stop-color="#000000"
         id="path44016" />
    </clipPath>
    <clipPath
       clipPathUnits="userSpaceOnUse"
       id="F">
      <path
         d="M 133.098,44.46 C 160.139,58.75 109.184,84.758 124.671,110.228 L 108.307,113.625 C 101.349,71.053 150.767,60.82 133.098,44.461 Z"
         opacity="1"
         fill="#50b38a"
         fill-opacity="1"
         stroke="none"
         stroke-width="16"
         stroke-linecap="round"
         stroke-linejoin="round"
         stroke-miterlimit="4"
         stroke-dasharray="none"
         stroke-opacity="1"
         stop-color="#000000"
         id="path44019" />
    </clipPath>
    <clipPath
       clipPathUnits="userSpaceOnUse"
       id="n">
      <path
         class="vine"
         d="M 99.29,156.801 C 34.464,153.547 39.725,171.135 2.146,154.486 C 24.14,160.082 39.895,142.233 102.553,133.396 Z"
         fill="#50883b"
         fill-opacity="1"
         stroke="none"
         stroke-width="12.2"
         stroke-linecap="round"
         stroke-linejoin="round"
         stroke-miterlimit="4"
         stroke-dasharray="none"
         stroke-opacity="1"
         stop-color="#000000"
         id="path44022" />
    </clipPath>
    <clipPath
       clipPathUnits="userSpaceOnUse"
       id="l">
      <path
         class="vine"
         d="M 157.514,200.874 C 154.26,265.7 171.848,260.439 155.198,298.018 C 160.795,276.025 142.946,260.27 134.109,197.612 Z"
         fill="#50883b"
         fill-opacity="1"
         stroke="none"
         stroke-width="12.2"
         stroke-linecap="round"
         stroke-linejoin="round"
         stroke-miterlimit="4"
         stroke-dasharray="none"
         stroke-opacity="1"
         stop-color="#000000"
         id="path44025" />
    </clipPath>
    <clipPath
       clipPathUnits="userSpaceOnUse"
       id="j">
      <path
         class="vine"
         d="M 198.727,144.449 C 263.553,147.703 258.292,130.115 295.871,146.765 C 273.878,141.168 258.123,159.017 195.465,167.853 Z"
         fill="#50883b"
         fill-opacity="1"
         stroke="none"
         stroke-width="12.2"
         stroke-linecap="round"
         stroke-linejoin="round"
         stroke-miterlimit="4"
         stroke-dasharray="none"
         stroke-opacity="1"
         stop-color="#000000"
         id="path44028" />
    </clipPath>
    <clipPath
       clipPathUnits="userSpaceOnUse"
       id="h">
      <path
         class="vine"
         d="M 145.13,102.32 C 148.384,37.493 130.796,42.754 147.446,5.175 C 141.849,27.168 159.698,42.923 168.535,105.581 Z"
         opacity="1"
         fill="#50883b"
         fill-opacity="1"
         stroke="none"
         stroke-width="12.2"
         stroke-linecap="round"
         stroke-linejoin="round"
         stroke-miterlimit="4"
         stroke-dasharray="none"
         stroke-opacity="1"
         stop-color="#000000"
         id="path44031" />
    </clipPath>
    <clipPath
       clipPathUnits="userSpaceOnUse"
       id="T">
      <path
         d="M 48.357,136.918 C 66.537,127.784 85.397,120.031 104.879,116.022 L 103.828,108.666 C 83.583,114.774 59.153,129.13 48.357,136.918 Z"
         fill="#a42424"
         fill-opacity="1"
         stroke="none"
         stroke-width="22"
         stroke-linecap="round"
         stroke-linejoin="round"
         stroke-miterlimit="4"
         stroke-dasharray="none"
         stroke-opacity="1"
         stop-color="#000000"
         id="path44034" />
    </clipPath>
    <clipPath
       clipPathUnits="userSpaceOnUse"
       id="N">
      <path
         d="M 164.694,47.398 C 173.828,65.579 181.58,84.438 185.59,103.92 L 192.945,102.87 C 186.838,82.625 172.481,58.195 164.695,47.398 Z"
         opacity="1"
         fill="#a42424"
         fill-opacity="1"
         stroke="none"
         stroke-width="22"
         stroke-linecap="round"
         stroke-linejoin="round"
         stroke-miterlimit="4"
         stroke-dasharray="none"
         stroke-opacity="1"
         stop-color="#000000"
         id="path44037" />
    </clipPath>
    <clipPath
       clipPathUnits="userSpaceOnUse"
       id="P">
      <path
         d="M 254.856,164.298 C 236.676,173.432 217.816,181.184 198.334,185.194 L 199.384,192.55 C 219.63,186.442 244.059,172.086 254.856,164.298 Z"
         opacity="1"
         fill="#a42424"
         fill-opacity="1"
         stroke="none"
         stroke-width="22"
         stroke-linecap="round"
         stroke-linejoin="round"
         stroke-miterlimit="4"
         stroke-dasharray="none"
         stroke-opacity="1"
         stop-color="#000000"
         id="path44040" />
    </clipPath>
    <clipPath
       clipPathUnits="userSpaceOnUse"
       id="R">
      <path
         d="M 137.246,253.794 C 128.112,235.614 120.36,216.754 116.35,197.272 L 108.995,198.323 C 115.102,218.568 129.459,242.998 137.246,253.794 Z"
         opacity="1"
         fill="#a42424"
         fill-opacity="1"
         stroke="none"
         stroke-width="22"
         stroke-linecap="round"
         stroke-linejoin="round"
         stroke-miterlimit="4"
         stroke-dasharray="none"
         stroke-opacity="1"
         stop-color="#000000"
         id="path44043" />
    </clipPath>
  </defs>
  <path
     d="M 193.86594,200.51854 C 190.95594,205.05354 187.04494,210.35154 180.34894,213.47854 L 180.22894,213.53154 A 23.6,23.6 0 0 1 177.79994,214.45754 A 55.265,55.265 0 0 1 176.24094,217.42254 C 175.81094,216.66754 175.37094,215.92154 174.93494,215.17054 C 170.47794,216.02254 166.16094,215.61054 162.44794,214.86054 L 162.44094,214.88054 C 162.40694,214.87554 162.36394,214.86654 162.32894,214.86054 C 165.36894,218.31054 168.45894,221.73954 171.37194,225.12554 C 170.07694,227.03754 168.79094,228.92354 167.61994,230.69554 C 166.71794,232.06554 165.87994,233.38254 165.16094,234.63354 A 26.66,26.66 0 0 0 163.38194,238.26654 C 162.55194,240.14554 162.02494,241.86254 161.73194,243.42254 A 14.894,14.894 0 0 0 161.51094,247.71954 C 161.65094,249.02954 161.97594,250.13954 162.40494,251.08254 A 9.321,9.321 0 0 0 163.97394,253.47554 A 9.595,9.595 0 0 0 167.41694,255.90054 C 168.59094,256.38954 169.10094,256.38954 169.10094,256.38954 C 169.10094,256.38954 168.65494,256.14054 167.79594,255.31454 A 8.966,8.966 0 0 1 165.71594,252.32654 A 7.556,7.556 0 0 1 165.18294,250.24254 A 8.912,8.912 0 0 1 165.28294,247.76254 C 165.47494,246.71354 165.79094,245.69254 166.22194,244.71754 C 166.69894,243.60554 167.38094,242.33754 168.32694,240.91054 A 39.902,39.902 0 0 1 170.46194,238.50454 C 171.33894,237.57654 172.33394,236.57054 173.45994,235.44454 C 174.52394,234.38354 175.70794,233.20554 176.94394,231.96454 C 179.87894,235.84754 182.32694,239.68154 184.15694,243.73254 C 185.70594,247.15654 186.70694,250.51454 187.23894,253.84654 C 187.66694,257.02454 187.87594,258.72754 187.51694,259.96354 C 188.00894,259.10854 188.21694,257.54454 188.34294,253.75854 A 50.493,50.493 0 0 0 187.10494,242.75854 C 185.94194,237.56554 184.01494,232.49754 181.47994,227.23454 C 183.88294,224.62254 186.29794,221.77754 188.34094,218.77954 C 192.23094,213.53554 193.74094,206.95354 193.86594,200.51854 Z M 113.88194,210.27554 L 116.18894,215.90554 A 179.226,179.226 0 0 0 119.86894,223.76854 C 119.52294,224.22354 119.17094,224.67454 118.84094,225.13354 C 117.53894,226.93154 116.32494,228.77054 115.30094,230.58654 C 114.28894,232.38054 113.44094,234.18654 112.88094,235.94054 A 25.229,25.229 0 0 0 111.96194,240.60054 C 112.16794,241.81154 111.80794,248.63054 111.80794,248.63054 C 111.95494,251.53754 112.26594,254.40054 112.62194,256.89954 C 113.91394,265.92654 115.13994,268.92454 115.13994,268.92454 C 115.13994,268.92454 114.85294,265.70354 115.24494,256.76854 C 115.38094,253.60854 115.67194,249.97554 116.29194,246.59654 C 116.58894,244.97054 116.96194,243.42454 117.42194,242.03354 C 117.87594,240.65054 118.40094,239.46654 118.98694,238.54954 C 119.64394,237.45554 120.53694,236.23654 121.65194,234.90454 C 122.41494,233.98754 123.28894,233.04054 124.19794,232.08654 C 133.16394,248.56954 137.69094,253.85754 137.69094,253.85754 C 137.69094,253.85754 134.00794,247.65754 126.72594,229.55154 A 136.09,136.09 0 0 1 134.82594,222.38354 A 183.095,183.095 0 0 1 138.22194,219.67654 C 139.28594,227.60954 142.78994,235.74854 144.73194,243.69954 C 148.45294,258.93854 150.85594,262.66154 154.49694,272.15954 C 157.07994,278.89454 155.58794,284.88254 153.60494,291.64554 C 152.49194,295.43954 154.52594,297.41254 155.02094,297.97554 C 154.51794,297.38554 154.59594,294.02754 155.78394,291.79754 C 157.55194,288.48054 160.82394,283.07754 162.13394,273.27554 C 163.17394,265.49354 160.20394,258.49554 158.63194,242.27054 A 405.376,405.376 0 0 1 156.94994,213.71754 C 154.48594,213.09154 151.80694,212.23854 149.07994,210.93254 L 141.12794,211.42054 C 137.87794,211.62154 133.87194,212.43454 129.28194,212.68254 A 249.49,249.49 0 0 0 127.46594,214.67054 A 155.997,155.997 0 0 0 123.04594,219.74854 A 137.11,137.11 0 0 1 120.65894,212.29354 L 120.64394,212.29154 L 120.45194,212.25454 L 120.56194,212.26854 A 35.928,35.928 0 0 1 113.88194,210.27554 Z"
     fill="url(#c)"
     fill-opacity="1"
     stroke-width="3.669"
     id="path44048"
     style="fill:url(#c)" />
  <path
     class="leaf4"
     fill="url(#d)"
     stroke-width="3.543"
     d="M 59.501941,58.430539 C 60.071941,73.957539 67.973941,96.772539 61.848941,93.375539 C 63.546941,96.918539 66.573941,103.37154 68.391941,108.47854 C 70.000941,109.09854 71.564941,109.86654 73.085941,110.72454 H 73.081941 C 74.884941,111.74154 76.648941,112.92754 78.374941,114.15654 C 80.286941,113.23454 82.192941,112.30654 84.202941,111.43054 L 84.241941,111.41254 L 90.999941,108.64254 A 93.312,93.312 0 0 1 80.745941,96.037539 C 76.305941,89.519539 71.883941,82.951539 68.755941,75.719539 C 74.992941,84.449539 82.513941,92.397539 90.247941,99.853539 C 92.497941,102.02354 94.842941,104.09954 97.270941,106.07354 L 103.03894,103.70954 L 102.85494,103.94754 C 103.10994,103.80254 103.36494,103.65954 103.53894,103.52954 L 103.82794,103.30154 L 104.21094,103.07254 C 104.33094,102.99954 104.47894,102.89054 104.60894,102.80254 L 104.67794,99.863539 C 104.80394,94.358539 105.88794,88.613539 108.55994,83.435539 C 102.99494,82.293539 90.343941,74.527539 87.093941,72.928539 C 90.823941,80.754539 66.312941,64.593539 59.501941,58.430539 Z"
     fill-opacity="1"
     id="path44050"
     style="fill:url(#d)" />
  <path
     class="leaf2"
     fill="url(#e)"
     stroke-width="3.543"
     d="M 224.13994,186.21754 C 222.22794,187.13954 220.32194,188.06754 218.31194,188.94354 L 218.27294,188.96154 L 211.97594,191.54154 L 211.50194,191.72654 A 93.241,93.241 0 0 1 221.76894,204.33654 C 226.20894,210.85454 230.62894,217.42254 233.75694,224.65454 C 227.52094,215.92454 220.00094,207.97654 212.26694,200.51954 A 109.92,109.92 0 0 0 204.84294,193.98654 A 83.115,83.115 0 0 1 201.35494,194.97154 L 197.92894,195.84654 L 197.84294,200.33454 C 197.73594,205.89454 196.65494,211.70654 193.95294,216.93754 C 199.51694,218.07854 212.17094,225.84654 215.42094,227.44554 C 211.69094,219.61954 236.20194,235.77954 243.01294,241.94354 C 242.44294,226.41654 234.54094,203.60154 240.66594,206.99854 C 238.96794,203.45554 235.94094,197.00254 234.12294,191.89454 C 232.51494,191.27654 230.95294,190.50654 229.43094,189.64854 C 227.62794,188.63254 225.86594,187.44554 224.14094,186.21754 Z"
     fill-opacity="1"
     id="path44052"
     style="fill:url(#e)" />
  <path
     class="leaf1"
     fill="url(#f)"
     stroke-width="3.543"
     d="M 243.01294,58.430539 C 227.48594,59.000539 204.67094,66.904539 208.06794,60.780539 C 204.52494,62.476539 198.07194,65.504539 192.96394,67.322539 C 191.56994,70.920539 189.42194,74.298539 187.28694,77.305539 C 189.41194,81.495539 190.94494,85.338539 192.79494,89.939539 A 93.305,93.305 0 0 1 205.40794,79.674539 C 211.92594,75.234539 218.49394,70.814539 225.72594,67.685539 C 216.99594,73.922539 209.04794,81.441539 201.59094,89.175539 C 198.36494,92.521539 195.33094,96.064539 192.56594,99.801539 C 193.34294,101.48154 193.75194,102.72754 194.24994,103.94954 C 196.54494,103.71254 198.98494,103.57354 200.97994,103.58854 C 206.67194,103.64854 212.64494,104.72054 218.00794,107.49254 C 219.14794,101.92854 226.91594,89.274539 228.51494,86.023539 C 220.68894,89.753539 236.84894,65.241539 243.01294,58.430539 Z"
     fill-opacity="1"
     id="path44054"
     style="fill:url(#f)" />
  <path
     d="M 109.04794,114.71654 L 125.41094,111.31954 C 127.64294,110.85554 128.74294,108.32254 127.55894,106.37454 C 124.22494,100.89054 124.43494,95.608539 126.45894,90.036539 C 128.26594,93.213539 129.99194,96.286539 132.00894,99.755539 C 132.77584,101.0736 134.34597,101.69454 135.80694,101.25754 L 141.65294,99.507539 C 141.9707,100.80598 143.0404,101.78446 144.36194,101.98554 L 167.76594,105.24754 C 169.93838,105.55155 171.79728,103.69065 171.49094,101.51854 L 182.74894,102.98354 C 183.10039,104.69223 184.72101,105.83223 186.44794,105.58554 L 193.84594,106.39754 C 195.84594,106.11054 198.43094,106.84954 197.84894,104.91554 C 195.53094,97.231539 190.70494,84.522539 186.91494,76.729539 C 190.73794,71.179539 193.33494,65.474539 194.07694,58.529539 C 194.89194,50.892539 193.65694,41.946539 190.39094,29.714539 C 189.38494,25.946539 183.82394,26.732539 183.90294,30.632539 C 184.08594,39.616539 184.79194,45.526539 184.10394,50.190539 C 183.55394,53.919539 182.17494,57.164539 178.73894,61.356539 C 174.70894,54.334539 170.77794,48.046539 167.76194,43.866539 C 165.38394,40.579539 160.32094,43.650539 162.13694,47.278539 C 165.63694,54.245539 168.87694,61.310539 171.81894,68.444539 C 170.25594,69.891539 168.22194,71.594539 166.24894,73.263539 C 161.86094,54.001539 156.93994,40.371539 153.56294,29.968539 C 149.86294,18.570539 148.26683,12.750071 150.47283,4.0820721 C 151.46083,0.16607204 145.84473,-0.4357973 144.20173,3.2542027 C 136.16573,21.390202 135.73194,27.791539 137.40094,38.683539 C 137.52794,39.510539 137.72394,40.740539 137.86794,41.591539 C 136.85394,40.847539 135.95294,40.061539 134.70994,39.403539 C 131.29994,37.611539 128.10594,42.117539 130.92594,44.741539 C 132.77894,46.456539 133.44094,47.765539 133.63894,48.817539 C 133.83694,49.869539 133.65194,50.941539 132.86894,52.466539 C 131.66494,54.815539 128.76594,57.980539 125.45394,61.511539 C 118.72394,51.136539 118.85894,45.681539 118.05494,39.009539 C 117.59394,35.204539 112.10894,35.111539 111.51794,38.897539 C 109.75394,50.272539 112.14994,60.597539 116.81294,71.341539 C 109.09894,80.906539 102.15094,93.854539 105.11994,112.01754 C 105.42272,113.87103 107.20914,115.09851 109.04794,114.71654 Z M 141.75294,80.896539 C 139.49294,78.573539 137.02994,76.129539 135.21294,74.083539 C 137.31194,70.873539 139.36994,67.690539 141.04594,64.501539 C 141.45994,69.175539 141.68594,74.664539 141.75294,80.895539 Z"
     color="#000000"
     fill="#100404"
     fill-opacity="1"
     stroke-width="6.6"
     stroke-linecap="round"
     stroke-linejoin="round"
     id="path44056"
     sodipodi:nodetypes="ccccccccccccccccccccccccsccccccsccccccccccsc" />
  <path
     d="M 184.37694,108.11754 L 187.77394,124.48054 C 188.23794,126.71254 190.77094,127.81254 192.71894,126.62854 C 198.20294,123.29454 203.48494,123.50454 209.05694,125.52854 C 205.87994,127.33554 202.80694,129.06154 199.33794,131.07854 A 3.3,3.3 0 0 0 197.83594,134.87654 L 199.58594,140.72254 A 3.3,3.3 0 0 0 197.10794,143.43254 L 193.84594,166.83454 A 3.3,3.3 0 0 0 197.57494,170.55954 C 199.46994,170.29254 201.26994,170.00854 203.06894,169.72554 C 206.41994,172.70854 209.20194,175.14654 212.01194,177.61454 C 206.74494,179.24454 201.45194,180.71754 196.10994,181.81754 A 3.3,3.3 0 0 0 193.50794,185.51754 L 192.69594,192.91454 C 192.98294,194.91454 192.24394,197.49954 194.17794,196.91754 C 201.86194,194.59954 214.57094,189.77354 222.36394,185.98354 C 227.91394,189.80754 233.61894,192.40354 240.56394,193.14554 C 248.20094,193.96054 257.14694,192.72554 269.37894,189.45954 C 273.14794,188.45354 272.36094,182.89254 268.46094,182.97154 C 259.47694,183.15454 253.56794,183.86054 248.90294,183.17254 C 245.17494,182.62354 241.92894,181.24354 237.73694,177.80754 C 244.75994,173.77754 251.04694,169.84654 255.22694,166.83154 C 258.51394,164.45254 255.44294,159.38954 251.81494,161.20654 A 313.146,313.146 0 0 1 230.64894,170.88754 C 229.20194,169.32554 227.49894,167.29054 225.82994,165.31754 C 245.09194,160.93054 258.72194,156.00854 269.12494,152.63154 C 280.52294,148.93154 288.03894,147.19354 296.70694,149.39954 C 300.62294,150.38754 302.54694,144.82754 298.85694,143.18454 C 280.72194,135.14954 271.30194,134.80054 260.41094,136.46954 C 259.58294,136.59654 258.35394,136.79254 257.50194,136.93654 C 258.24594,135.92254 259.03194,135.02154 259.68994,133.77854 C 261.48194,130.36854 256.97594,127.17454 254.35194,129.99554 C 252.63694,131.84754 251.32794,132.51054 250.27594,132.70854 C 249.22394,132.90554 248.15194,132.72054 246.62694,131.93854 C 244.27794,130.73354 241.11294,127.83454 237.58194,124.52254 C 247.95694,117.79254 253.41194,117.92754 260.08394,117.12454 C 263.88894,116.66254 263.98194,111.17754 260.19594,110.58654 C 248.82094,108.82254 238.49594,111.21854 227.75194,115.88154 C 218.18694,108.16754 205.23894,101.21954 187.07694,104.18854 A 3.3,3.3 0 0 0 184.37694,108.11654 Z M 218.19694,140.82254 C 220.51994,138.56254 222.96394,136.10054 225.00994,134.28254 C 228.21994,136.38154 231.40294,138.43954 234.59194,140.11554 C 229.91794,140.52954 224.42894,140.75554 218.19794,140.82254 Z"
     color="#000000"
     fill="#100404"
     fill-opacity="1"
     stroke-width="6.6"
     stroke-linecap="round"
     stroke-linejoin="round"
     id="path44058" />
  <path
     class="leaf3"
     fill="url(#g)"
     stroke-width="3.543"
     d="M 84.493941,192.90854 C 83.339941,198.48254 75.596941,211.10454 73.999941,214.35154 C 81.825941,210.62154 65.665941,235.13154 59.501941,241.94354 C 75.028941,241.37354 97.841941,233.47154 94.444941,239.59554 C 97.987941,237.89954 104.44094,234.87354 109.54794,233.05554 C 110.16794,231.44554 110.93594,229.87954 111.79494,228.35754 V 228.36154 C 112.81094,226.55854 113.99694,224.79454 115.22594,223.06854 C 114.30394,221.15654 113.37594,219.24954 112.49994,217.24054 L 112.48194,217.20154 L 110.15794,211.53154 L 109.71694,210.45154 A 93.38,93.38 0 0 1 97.106941,220.69954 C 90.588941,225.13954 84.020941,229.55954 76.788941,232.68754 C 85.518941,226.45054 93.466941,218.93154 100.92294,211.19754 A 112.4,112.4 0 0 0 105.80794,205.79554 C 101.75594,203.21554 98.371941,200.50454 95.307941,198.83854 L 95.182941,198.77154 L 95.026941,198.68154 L 95.012941,198.66854 A 18.568,18.568 0 0 1 91.968941,196.40654 L 85.632941,193.46954 A 29.985,29.985 0 0 1 84.492941,192.90854 Z"
     fill-opacity="1"
     id="path44060"
     style="fill:url(#g)" />
  <path
     d="M 193.25894,184.55654 L 176.89594,187.95354 A 3.3,3.3 0 0 0 174.74794,192.89854 C 178.08194,198.38254 177.87194,203.66454 175.84794,209.23654 C 174.04094,206.05954 172.31494,202.98654 170.29794,199.51754 A 3.3,3.3 0 0 0 166.49994,198.01554 L 160.65394,199.76554 A 3.3,3.3 0 0 0 157.94394,197.28754 L 134.54094,194.02554 A 3.3,3.3 0 0 0 130.81594,197.75354 C 131.08294,199.64954 131.36694,201.44954 131.64994,203.24854 C 128.66694,206.59954 126.22894,209.38154 123.76094,212.19154 C 122.13094,206.92454 120.65794,201.63154 119.55794,196.28954 A 3.3,3.3 0 0 0 115.85794,193.68754 L 108.50294,194.73754 A 3.3,3.3 0 0 0 105.81194,198.95754 C 108.12994,206.64154 111.60194,214.75054 115.39194,222.54354 C 111.56794,228.09354 108.97194,233.79854 108.22994,240.74354 C 107.41494,248.38054 108.64894,257.32654 111.91594,269.55854 A 3.3,3.3 0 0 0 118.40394,268.64054 C 118.22094,259.65554 117.51494,253.74654 118.20294,249.08254 C 118.75194,245.35354 120.13194,242.10854 123.56794,237.91654 C 127.59794,244.93854 131.52894,251.22654 134.54394,255.40654 A 3.3,3.3 0 0 0 140.16894,251.99454 A 313.146,313.146 0 0 1 130.48794,230.82854 C 132.04994,229.38154 134.08494,227.67854 136.05794,226.00954 C 140.44494,245.27054 145.36694,258.90154 148.74394,269.30454 C 152.44394,280.70254 154.18194,288.21854 151.97594,296.88654 A 3.3,3.3 0 0 0 158.19094,299.03654 C 166.22594,280.90054 166.57494,271.48154 164.90594,260.58954 C 164.77894,259.76254 164.58294,258.53254 164.43894,257.68154 C 165.45294,258.42554 166.35394,259.21154 167.59694,259.86954 A 3.3,3.3 0 0 0 171.37994,254.53154 C 169.52794,252.81654 168.86494,251.50654 168.66694,250.45554 C 168.46994,249.40354 168.65494,248.33154 169.43694,246.80654 C 170.64194,244.45654 173.54094,241.29154 176.85294,237.76154 C 183.58294,248.13554 183.44794,253.59154 184.25094,260.26354 A 3.3,3.3 0 0 0 190.78894,260.37554 C 192.55294,249.00054 190.15694,238.67554 185.49394,227.93154 C 193.20794,218.36654 200.15494,205.41854 197.18694,187.25554 A 3.3,3.3 0 0 0 193.25894,184.55654 Z M 160.55394,218.37654 C 162.81394,220.69954 165.27594,223.14354 167.09394,225.18954 C 164.99494,228.39954 162.93694,231.58254 161.26094,234.77154 C 160.84694,230.09754 160.62094,224.60854 160.55394,218.37754 Z"
     color="#000000"
     fill="#100404"
     stroke-width="6.6"
     stroke-linecap="round"
     stroke-linejoin="round"
     fill-opacity="1"
     id="path44062" />
  <path
     d="M 116.35594,192.14254 L 112.95994,175.77954 C 112.49594,173.54754 109.96294,172.44754 108.01494,173.63154 C 102.53094,176.96554 97.248941,176.75554 91.676941,174.73154 C 94.853941,172.92454 97.926941,171.19854 101.39594,169.18154 C 102.714,168.41464 103.33494,166.84451 102.89794,165.38354 L 101.14794,159.53754 C 102.44638,159.21978 103.42486,158.15008 103.62594,156.82854 L 106.88794,133.42454 C 107.19178,131.25257 105.33166,129.39395 103.15994,129.69954 C 101.26394,129.96654 99.463941,130.25054 97.664941,130.53354 L 104.62494,118.44154 C 106.33282,118.08919 107.47176,116.46884 107.22494,114.74254 L 106.17494,107.38754 C 105.88874,105.38818 103.88975,104.11269 101.95594,104.69554 C 94.271941,107.01354 86.162941,110.48554 78.369941,114.27554 C 72.819941,110.45254 67.114941,107.85554 60.169941,107.11354 C 52.532941,106.29854 43.586941,107.53354 31.354941,110.79954 C 27.586941,111.80554 28.372941,117.36654 32.272941,117.28754 C 41.257941,117.10454 47.166941,116.39854 51.830941,117.08654 C 55.559941,117.63654 58.804941,119.01554 62.996941,122.45154 C 55.974941,126.48154 49.686941,130.41254 45.506941,133.42854 C 42.219941,135.80654 45.290941,140.86954 48.918941,139.05354 C 55.885941,135.55354 62.950941,132.31354 70.084941,129.37154 C 71.531941,130.93454 73.234941,132.96854 74.903941,134.94154 C 55.642941,139.32954 42.011941,144.25054 31.608941,147.62754 C 20.210941,151.32754 12.694941,153.06554 4.0269411,150.85954 C 0.11194102,149.87154 -0.53658665,155.54266 3.1534134,157.18566 C 21.289413,165.22166 29.431941,165.45854 40.323941,163.78954 C 41.150941,163.66254 42.380941,163.46654 43.231941,163.32254 C 42.487941,164.33654 41.701941,165.23754 41.043941,166.48054 C 39.251941,169.89054 43.758941,173.08454 46.381941,170.26454 C 48.096941,168.41154 49.406941,167.74954 50.457941,167.55154 C 51.509941,167.35354 52.581941,167.53854 54.106941,168.32154 C 56.456941,169.52554 59.621941,172.42454 63.151941,175.73654 C 52.777941,182.46654 47.321941,182.33154 40.649941,183.13554 C 36.845941,183.59654 36.751941,189.08154 40.537941,189.67254 C 51.912941,191.43654 62.237941,189.04054 72.981941,184.37754 C 82.546941,192.09154 95.494941,199.03954 113.65794,196.07054 C 115.51143,195.76776 116.73891,193.98134 116.35694,192.14254 Z M 82.535941,159.43754 C 80.213941,161.69754 77.769941,164.16054 75.723941,165.97754 C 72.513941,163.87854 69.330941,161.82054 66.141941,160.14454 C 70.815941,159.73054 76.304941,159.50454 82.535941,159.43754 Z"
     color="#000000"
     fill="#100404"
     fill-opacity="1"
     stroke-width="6.6"
     stroke-linecap="round"
     stroke-linejoin="round"
     id="path44064"
     sodipodi:nodetypes="cccccccccccccccccccccccccsccccccccccccccccccc" />
  <path
     class="vine1"
     d="M 156.375,104.183 C 154.593,44.321 139.435,34.624 147.279,6.201"
     clip-path="url(#h)"
     opacity="1"
     fill="none"
     fill-opacity="1"
     stroke="url(#i)"
     stroke-width="22"
     stroke-linecap="round"
     stroke-linejoin="round"
     stroke-miterlimit="4"
     stroke-dasharray="none"
     stroke-opacity="1"
     stop-color="#000000"
     id="path44066"
     style="stroke:url(#i)"
     transform="translate(0.14594102,-0.43546046)" />
  <path
     class="vine1"
     d="M 192.892,156.29 C 252.754,154.507 262.452,139.35 290.874,147.194"
     clip-path="url(#j)"
     fill="none"
     fill-opacity="1"
     stroke="url(#k)"
     stroke-width="22"
     stroke-linecap="round"
     stroke-linejoin="round"
     stroke-miterlimit="4"
     stroke-dasharray="none"
     stroke-opacity="1"
     stop-color="#000000"
     id="path44068"
     style="stroke:url(#k)"
     transform="translate(0.14594102,-0.43546046)" />
  <path
     class="vine1"
     d="M 145.972,197.392 C 147.754,257.255 162.912,266.952 155.068,295.375"
     clip-path="url(#l)"
     fill="none"
     fill-opacity="1"
     stroke="url(#m)"
     stroke-width="22"
     stroke-linecap="round"
     stroke-linejoin="round"
     stroke-miterlimit="4"
     stroke-dasharray="none"
     stroke-opacity="1"
     stop-color="#000000"
     id="path44070"
     style="stroke:url(#m)"
     transform="translate(0.14594102,-0.43546046)" />
  <path
     class="vine1"
     d="M 109.975,145.321 C 50.112,147.103 40.415,162.261 11.992,154.417"
     clip-path="url(#n)"
     fill="none"
     fill-opacity="1"
     stroke="url(#o)"
     stroke-width="22"
     stroke-linecap="round"
     stroke-linejoin="round"
     stroke-miterlimit="4"
     stroke-dasharray="none"
     stroke-opacity="1"
     stop-color="#000000"
     id="path44072"
     style="stroke:url(#o)"
     transform="translate(0.14594102,-0.43546046)" />
  <path
     class="vine2"
     clip-path="url(#p)"
     d="M 144.38,205.637 C 122.802,226.116 108.82,231.011 112.223,270.97"
     fill="none"
     fill-opacity="1"
     stroke="url(#q)"
     stroke-width="16"
     stroke-linecap="round"
     stroke-linejoin="round"
     stroke-miterlimit="4"
     stroke-dasharray="none"
     stroke-opacity="1"
     stop-color="#000000"
     id="path44074"
     style="stroke:url(#q)"
     transform="translate(0.14594102,-0.43546046)" />
  <path
     class="vine2"
     clip-path="url(#r)"
     d="M 204.932,155.361 C 225.411,176.939 230.306,190.921 270.265,187.518"
     fill="none"
     fill-opacity="1"
     stroke="url(#s)"
     stroke-width="16"
     stroke-linecap="round"
     stroke-linejoin="round"
     stroke-miterlimit="4"
     stroke-dasharray="none"
     stroke-opacity="1"
     stop-color="#000000"
     id="path44076"
     style="stroke:url(#s)"
     transform="translate(0.14594102,-0.43546046)" />
  <path
     class="vine2"
     clip-path="url(#t)"
     d="M 155.136,97.433 C 176.714,76.953 190.696,72.059 187.293,32.099"
     fill="none"
     fill-opacity="1"
     stroke="url(#u)"
     stroke-width="16"
     stroke-linecap="round"
     stroke-linejoin="round"
     stroke-miterlimit="4"
     stroke-dasharray="none"
     stroke-opacity="1"
     stop-color="#000000"
     id="path44078"
     style="stroke:url(#u)"
     transform="translate(0.14594102,-0.43546046)" />
  <path
     class="vine2"
     clip-path="url(#v)"
     d="M 95.057,144.075 C 74.578,122.497 69.683,108.515 29.724,111.918"
     fill="none"
     fill-opacity="1"
     stroke="url(#w)"
     stroke-width="16"
     stroke-linecap="round"
     stroke-linejoin="round"
     stroke-miterlimit="4"
     stroke-dasharray="none"
     stroke-opacity="1"
     stop-color="#000000"
     id="path44080"
     style="stroke:url(#w)"
     transform="translate(0.14594102,-0.43546046)" />
  <path
     class="vine3"
     d="M 149.81,100.29 C 135.681,88.995 121.752,68.162 120.168,43.206"
     clip-path="url(#x)"
     opacity="1"
     fill="none"
     fill-opacity="1"
     stroke="url(#y)"
     stroke-width="16"
     stroke-linecap="round"
     stroke-linejoin="round"
     stroke-miterlimit="4"
     stroke-dasharray="none"
     stroke-opacity="1"
     stop-color="#000000"
     id="path44082"
     style="stroke:url(#y)"
     transform="translate(0.14594102,-0.43546046)" />
  <path
     class="vine3"
     d="M 204.614,147.354 C 215.908,133.224 236.741,119.296 261.697,117.711"
     clip-path="url(#z)"
     opacity="1"
     fill="none"
     fill-opacity="1"
     stroke="url(#A)"
     stroke-width="16"
     stroke-linecap="round"
     stroke-linejoin="round"
     stroke-miterlimit="4"
     stroke-dasharray="none"
     stroke-opacity="1"
     stop-color="#000000"
     id="path44084"
     style="stroke:url(#A)"
     transform="translate(0.14594102,-0.43546046)" />
  <path
     class="vine3"
     d="M 158.194,203.124 C 172.323,214.418 186.252,235.251 187.836,260.207"
     clip-path="url(#B)"
     opacity="1"
     fill="none"
     fill-opacity="1"
     stroke="url(#C)"
     stroke-width="16"
     stroke-linecap="round"
     stroke-linejoin="round"
     stroke-miterlimit="4"
     stroke-dasharray="none"
     stroke-opacity="1"
     stop-color="#000000"
     id="path44086"
     style="stroke:url(#C)"
     transform="translate(0.14594102,-0.43546046)" />
  <path
     class="vine3"
     d="M 101.9,155.694 C 90.605,169.824 69.772,183.752 44.816,185.337"
     clip-path="url(#D)"
     opacity="1"
     fill="none"
     fill-opacity="1"
     stroke="url(#E)"
     stroke-width="16"
     stroke-linecap="round"
     stroke-linejoin="round"
     stroke-miterlimit="4"
     stroke-dasharray="none"
     stroke-opacity="1"
     stop-color="#000000"
     id="path44088"
     style="stroke:url(#E)"
     transform="translate(0.14594102,-0.43546046)" />
  <path
     class="vine4"
     d="M 114.595,114.88 C 104.176,76.232 149.568,70.923 131.967,46.417"
     clip-path="url(#F)"
     opacity="1"
     fill="none"
     fill-opacity="1"
     stroke="url(#G)"
     stroke-width="16"
     stroke-linecap="round"
     stroke-linejoin="round"
     stroke-miterlimit="4"
     stroke-dasharray="none"
     stroke-opacity="1"
     stop-color="#000000"
     id="path44090"
     style="stroke:url(#G)"
     transform="translate(0.14594102,-0.43546046)" />
  <path
     class="vine4"
     d="M 188.704,115.71 C 227.352,105.291 232.661,150.683 257.167,133.082"
     clip-path="url(#H)"
     opacity="1"
     fill="none"
     fill-opacity="1"
     stroke="url(#I)"
     stroke-width="16"
     stroke-linecap="round"
     stroke-linejoin="round"
     stroke-miterlimit="4"
     stroke-dasharray="none"
     stroke-opacity="1"
     stop-color="#000000"
     id="path44092"
     style="stroke:url(#I)"
     transform="translate(0.14594102,-0.43546046)" />
  <path
     class="vine4"
     d="M 187.966,190.062 C 198.386,228.711 152.993,234.02 170.595,258.526"
     clip-path="url(#J)"
     opacity="1"
     fill="none"
     fill-opacity="1"
     stroke="url(#K)"
     stroke-width="16"
     stroke-linecap="round"
     stroke-linejoin="round"
     stroke-miterlimit="4"
     stroke-dasharray="none"
     stroke-opacity="1"
     stop-color="#000000"
     id="path44094"
     style="stroke:url(#K)"
     transform="translate(0.14594102,-0.43546046)" />
  <path
     class="vine4"
     d="M 113.183,189.414 C 74.534,199.833 69.225,154.441 44.719,172.042"
     clip-path="url(#L)"
     opacity="1"
     fill="none"
     fill-opacity="1"
     stroke="url(#M)"
     stroke-width="16"
     stroke-linecap="round"
     stroke-linejoin="round"
     stroke-miterlimit="4"
     stroke-dasharray="none"
     stroke-opacity="1"
     stop-color="#000000"
     id="path44096"
     style="stroke:url(#M)"
     transform="translate(0.14594102,-0.43546046)" />
  <path
     class="vine5"
     d="M 189.603,103.006 C 183.19,84.576 176.338,66.298 165.23,47.59"
     clip-path="url(#N)"
     opacity="1"
     fill="none"
     fill-opacity="1"
     stroke="url(#O)"
     stroke-width="8"
     stroke-linecap="round"
     stroke-linejoin="round"
     stroke-miterlimit="4"
     stroke-dasharray="none"
     stroke-opacity="1"
     stop-color="#000000"
     id="path44098"
     style="stroke:url(#O)"
     transform="translate(0.14594102,-0.43546046)" />
  <path
     class="vine5"
     d="M 196.725,189.964 C 215.215,183.584 233.552,176.766 252.32,165.714"
     clip-path="url(#P)"
     opacity="1"
     fill="none"
     fill-opacity="1"
     stroke="url(#Q)"
     stroke-width="7.993"
     stroke-linecap="round"
     stroke-linejoin="round"
     stroke-miterlimit="4"
     stroke-dasharray="none"
     stroke-opacity="1"
     stop-color="#000000"
     id="path44100"
     style="stroke:url(#Q)"
     transform="translate(0.14594102,-0.43546046)" />
  <path
     class="vine5"
     d="M 112.065,196.436 C 118.478,214.866 125.33,233.144 136.438,251.852"
     clip-path="url(#R)"
     opacity="1"
     fill="none"
     fill-opacity="1"
     stroke="url(#S)"
     stroke-width="8"
     stroke-linecap="round"
     stroke-linejoin="round"
     stroke-miterlimit="4"
     stroke-dasharray="none"
     stroke-opacity="1"
     stop-color="#000000"
     id="path44102"
     style="stroke:url(#S)"
     transform="translate(0.14594102,-0.43546046)" />
  <path
     class="vine5"
     d="M 106.277,111.298 C 87.847,117.711 69.57,124.563 50.861,135.671"
     clip-path="url(#T)"
     fill="none"
     fill-opacity="1"
     stroke="url(#U)"
     stroke-width="8"
     stroke-linecap="round"
     stroke-linejoin="round"
     stroke-miterlimit="4"
     stroke-dasharray="none"
     stroke-opacity="1"
     stop-color="#000000"
     id="path44104"
     style="stroke:url(#U)"
     transform="translate(0.14594102,-0.43546046)" />
  <path
     d="M 131.89994,84.867539 L 131.86294,84.882539 C 130.97494,84.899539 130.32894,85.064539 129.87794,85.234539 C 126.07294,86.022539 123.40194,88.760539 122.17494,91.169539 A 6.099,6.099 0 0 0 121.85694,91.859539 C 121.24094,93.356539 120.90694,94.859539 120.62094,96.359539 A 6.1,6.1 0 0 0 119.03094,95.935539 L 118.17294,96.060539 L 118.14594,96.066539 C 110.98494,97.145539 106.52894,101.54454 104.15794,102.98854 A 6.1,6.1 0 0 0 103.46394,103.46054 L 103.50094,103.43154 C 101.79594,104.71454 95.647941,106.57554 90.913941,112.70554 L 90.911941,112.70954 L 90.483941,113.26354 A 6.1,6.1 0 0 0 89.213941,117.05654 L 89.221941,117.75954 V 117.79354 C 89.329941,124.26354 90.728941,131.31554 94.764941,137.47854 A 6.1,6.1 0 0 0 95.563941,138.51354 L 95.493941,138.53954 L 95.196941,138.21054 L 95.444941,138.55654 C 92.820941,139.45254 90.375941,141.13754 88.772941,143.87654 L 88.770941,143.88054 C 85.608941,149.28954 86.968941,155.15254 87.004941,154.59054 V 154.59354 L 87.002941,154.61154 A 6.1,6.1 0 0 0 86.985941,155.07054 V 155.16654 C 86.985941,155.24354 86.986941,155.32154 86.989941,155.39854 C 87.309941,163.75854 87.117941,172.06554 86.215941,180.23054 C 84.749941,188.11354 88.993941,195.21654 94.936941,198.73654 C 95.116941,198.84654 95.301941,198.94754 95.491941,199.03954 L 95.219941,198.90254 C 101.36594,202.23254 108.84494,209.85754 120.49194,212.10254 C 120.49994,212.10254 120.50694,212.10454 120.51494,212.10554 L 120.51894,212.10754 C 120.59694,212.12354 120.67494,212.13754 120.75294,212.15054 L 120.79094,212.15654 L 120.82394,212.16254 C 129.04394,213.41454 136.01594,211.57554 141.11294,211.25954 L 147.80794,210.84554 C 147.95494,210.79354 148.10094,210.73554 148.24394,210.67154 C 153.51194,213.41554 158.70694,214.06154 162.40194,214.72154 L 162.42294,214.71254 C 167.59994,215.75554 173.96394,216.17254 180.24794,213.36154 A 6.13,6.13 0 0 0 180.36494,213.30454 L 180.48494,213.24854 L 180.50094,213.24054 C 180.60094,213.19054 180.69994,213.13754 180.79594,213.08254 C 190.30194,208.42254 194.14294,199.36954 197.48994,194.80654 A 5.51,5.51 0 0 0 197.49994,194.79454 L 197.50694,194.78154 C 197.57294,194.69554 197.63594,194.60854 197.69694,194.51954 L 197.74194,194.45354 C 197.78994,194.38154 197.83694,194.30954 197.88194,194.23654 C 200.60194,189.82354 206.96694,186.41654 213.54194,179.60554 L 213.72194,179.42554 A 6.1,6.1 0 0 0 214.95194,177.66054 L 215.03694,177.47454 C 218.24794,170.81454 215.81194,164.47454 214.58894,161.14654 A 5.875,5.875 0 0 0 214.57794,161.11554 L 214.51094,160.93754 A 6.1,6.1 0 0 0 213.93694,159.78954 L 213.91394,159.75354 C 212.62494,157.62354 211.51094,155.81254 210.06794,154.09954 L 210.06194,154.09354 C 209.56594,153.50754 208.83594,152.89954 208.14394,152.29654 C 209.49394,150.60154 210.72194,148.61654 211.32794,146.01954 L 211.35494,145.89054 L 211.37094,145.81654 L 211.37594,145.78954 L 211.38994,145.72254 A 6.1,6.1 0 0 0 211.43894,145.45754 C 213.00894,135.66354 206.44094,128.79454 204.41894,125.72454 L 204.46594,125.79654 A 6.1,6.1 0 0 0 204.12994,125.30854 L 204.09294,125.26154 L 204.08694,125.25154 L 204.08494,125.25054 C 200.00194,119.89054 197.15094,112.45154 194.53894,104.45554 A 6.03,6.03 0 0 0 194.52694,104.41954 L 194.47794,104.27354 A 6.1,6.1 0 0 0 194.23194,103.65254 L 194.16394,103.50354 A 6.104,6.104 0 0 0 194.04794,103.26954 C 194.23394,103.63254 193.73994,102.31654 193.11694,100.77754 L 193.11494,100.77354 C 192.45694,99.153539 191.03694,96.145539 187.75694,94.248539 A 5.385,5.385 0 0 0 187.73694,94.238539 L 187.35294,94.018539 A 6.1,6.1 0 0 0 184.81994,93.228539 L 184.38994,93.193539 L 184.36994,93.191539 C 172.83594,92.203539 161.49994,91.532539 150.44694,90.230539 A 6.1,6.1 0 0 0 150.19294,90.207539 L 150.08894,90.199539 A 6.1,6.1 0 0 0 149.64794,90.181539 C 147.27994,90.137539 142.54494,87.525539 135.74794,85.658539 A 10.213,10.213 0 0 0 131.95794,84.867539 C 131.94294,84.867539 131.93694,84.872539 131.92094,84.873539 A 5.582,5.582 0 0 0 131.90594,84.867539 Z M 131.83494,84.894539 A 6.152,6.152 0 0 0 131.77094,84.919539 C 131.10194,84.926539 130.52394,85.104539 129.91594,85.229539 A 5.888,5.888 0 0 1 131.83594,84.894539 Z"
     color="#000000"
     fill="#100404"
     stroke-width="12.2"
     stroke-linejoin="round"
     fill-opacity="1"
     id="path44106" />
  <path
     class="petal7End invis"
     d="M 200.66394,155.44554 C 199.58394,155.47454 198.53894,155.85554 197.56194,156.37754 C 196.25994,157.07354 194.92194,158.06154 193.25794,159.30954 L 193.14594,159.38954 L 193.05094,159.48654 C 190.70694,161.81654 187.18394,162.15354 183.24794,163.40454 L 183.14494,163.43654 L 183.04894,163.47954 C 182.37894,163.77254 181.33594,164.08154 180.23594,164.65254 C 179.14394,165.22054 177.90394,166.17254 177.29094,167.70954 V 167.71754 C 176.35894,170.01654 176.39294,172.26454 176.36094,174.20554 C 176.32994,176.14854 176.23594,177.76554 175.59394,179.08554 L 175.57794,179.11354 L 175.56394,179.14354 C 172.71294,185.54954 167.04394,189.98354 161.47894,194.51254 C 157.05694,197.17354 151.46694,197.09354 145.76894,197.25854 L 140.75794,197.39854 L 144.49394,200.74254 C 145.97894,202.07154 147.54994,203.20554 149.10694,204.24254 C 153.75994,207.36154 158.86694,207.89454 163.47294,208.71554 L 163.41994,208.70154 C 167.98694,209.64354 173.03194,209.90754 177.75594,207.79354 L 177.77094,207.78554 L 177.78494,207.77754 C 185.11594,204.35454 188.56094,196.65454 192.59394,191.16854 L 192.64394,191.10254 L 192.68894,191.03554 C 196.57994,184.72454 203.47394,181.26354 209.18194,175.34254 L 209.40994,175.11354 L 209.54294,174.82454 C 211.48994,170.78754 210.02994,166.42754 208.86294,163.25054 L 208.79694,163.07254 L 208.69294,162.91054 C 207.43994,160.83854 206.43294,159.25354 205.40294,158.03154 C 204.37094,156.81054 203.22094,155.85154 201.75394,155.54354 A 4.676,4.676 0 0 0 200.66394,155.44554 Z"
     fill="#932c2c"
     fill-opacity="1"
     id="path44108" />
  <path
     class="petal petal1"
     d="M 151.01994,130.71154 C 146.04594,130.71154 141.27494,133.71154 139.23594,138.75854 C 137.09794,143.28854 137.61894,149.43854 142.03594,152.55554 L 142.10894,152.60554 L 142.18394,152.65154 C 144.73094,154.13654 147.62694,154.15154 150.15394,153.36554 C 152.98294,152.27754 155.45894,150.95554 156.96094,148.78154 C 158.86694,146.02254 159.26594,142.32154 159.02694,138.94154 C 158.97794,136.94954 158.31694,135.03354 157.12294,133.50854 C 155.91794,131.96854 154.08294,130.81254 151.91994,130.74854 C 151.61994,130.72754 151.31994,130.71154 151.01994,130.71154 Z"
     fill="url(#V)"
     fill-opacity="1"
     id="path44110"
     style="fill:url(#V)" />
  <path
     class="petal6End invis"
     d="M 99.685941,143.87354 C 97.585941,143.83154 95.285941,144.82554 94.036941,146.95954 C 92.276941,149.96954 93.207941,153.10354 93.093941,154.96754 L 93.085941,155.07054 V 155.16654 C 93.415941,163.80054 93.219941,172.43854 92.270941,180.98654 C 91.126941,186.20354 94.035941,191.12754 98.060941,193.50254 L 98.097941,193.52454 L 98.126941,193.53954 C 105.45394,197.50954 112.25494,204.31154 121.66794,206.11754 L 121.70494,206.12554 L 121.74194,206.13154 C 128.44894,207.15354 134.80694,205.53954 140.73594,205.17254 L 147.43194,204.75854 L 141.59994,201.43854 C 138.21394,199.50954 134.74094,198.10254 131.45694,196.56554 H 131.44894 C 125.46894,193.72254 119.42794,190.90354 116.55294,185.04154 C 113.18094,176.25854 111.12794,166.71154 111.66594,157.27154 V 157.18254 C 111.70894,154.45754 112.60394,151.47254 112.79494,148.11054 L 112.86894,146.72954 L 111.59894,146.16954 C 108.40094,144.75954 105.03294,144.64454 102.21694,144.22754 L 102.18694,144.21954 L 101.50994,144.13954 A 7.593,7.593 0 0 0 99.685941,143.87354 Z"
     fill="#932c2c"
     fill-opacity="1"
     id="path44112" />
  <path
     class="petal petal2"
     d="M 151.01994,130.71154 C 146.04594,130.71154 141.27494,133.71154 139.23594,138.75854 C 137.09794,143.28854 137.61894,149.43854 142.03594,152.55554 L 142.10894,152.60554 L 142.18394,152.65154 C 144.73094,154.13654 147.62694,154.15154 150.15394,153.36554 C 152.98294,152.27754 155.45894,150.95554 156.96094,148.78154 C 158.86694,146.02254 159.26594,142.32154 159.02694,138.94154 C 158.97794,136.94954 158.31694,135.03354 157.12294,133.50854 C 155.91794,131.96854 154.08294,130.81254 151.91994,130.74854 C 151.61994,130.72754 151.31994,130.71154 151.01994,130.71154 Z"
     fill="url(#W)"
     fill-opacity="1"
     id="path44114"
     style="fill:url(#W)" />
  <path
     class="petal5End invis"
     d="M 169.90194,127.78754 L 170.77394,132.79954 C 171.19094,135.20154 171.64594,137.41754 171.58394,139.49654 C 170.83594,146.95354 170.26094,154.41054 167.65794,160.94754 L 167.64294,160.97754 L 167.63494,161.00654 C 165.91194,165.77054 161.69994,168.76054 157.28494,171.43854 C 150.33694,175.53454 142.07794,178.04154 134.99994,174.84854 H 134.99194 C 127.87194,171.49854 123.40194,163.33054 119.89594,155.24054 L 117.65994,150.08054 L 116.13894,155.49254 C 114.85694,160.03754 114.26694,164.94754 115.06894,169.81254 C 116.18294,176.64554 118.61394,183.97254 123.74194,189.23454 C 125.48394,191.33454 127.82994,192.42354 130.12894,192.79454 C 132.44594,193.16654 134.75094,192.91754 136.78694,192.52054 L 136.89094,192.49854 L 136.99394,192.46754 C 138.21794,192.08954 139.35594,192.29354 140.78694,192.85954 C 142.21694,193.42654 143.79494,194.36754 145.56994,195.11754 L 145.92594,195.26654 L 146.30894,195.27954 C 155.83194,195.48554 163.91494,189.28854 169.77494,182.33254 C 172.43494,179.70054 173.28494,176.07154 173.37894,172.82454 L 173.38694,172.61154 L 173.34994,172.40454 C 172.46594,167.62154 174.50094,162.47954 176.30294,157.29454 C 178.01994,154.50954 180.25894,151.43654 180.79694,147.32854 V 147.29154 L 180.80494,147.24654 C 181.36294,141.12754 178.72094,135.02654 174.39094,131.20654 L 174.33794,131.16054 L 174.15994,131.02254 Z"
     fill="#932c2c"
     fill-opacity="1"
     id="path44116" />
  <path
     class="petal petal3"
     d="M 151.01994,130.71154 C 146.04594,130.71154 141.27494,133.71154 139.23594,138.75854 C 137.09794,143.28854 137.61894,149.43854 142.03594,152.55554 L 142.10894,152.60554 L 142.18394,152.65154 C 144.73094,154.13654 147.62694,154.15154 150.15394,153.36554 C 152.98294,152.27754 155.45894,150.95554 156.96094,148.78154 C 158.86694,146.02254 159.26594,142.32154 159.02694,138.94154 C 158.97794,136.94954 158.31694,135.03354 157.12294,133.50854 C 155.91794,131.96854 154.08294,130.81254 151.91994,130.74854 C 151.61994,130.72754 151.31994,130.71154 151.01994,130.71154 Z"
     fill="url(#X)"
     fill-opacity="1"
     id="path44118"
     style="fill:url(#X)" />
  <path
     class="petal1End invis"
     d="M 159.19594,119.37754 C 157.77294,119.31254 156.29594,119.60554 154.85794,120.21354 C 152.55494,121.18654 150.27794,122.92354 147.97694,125.38954 L 145.22494,128.34854 L 149.24794,128.74654 C 152.57594,129.07654 155.54794,129.24054 157.58794,130.96954 L 157.59594,130.97754 L 157.60394,130.98554 C 160.35794,133.27154 160.77794,137.94154 160.33394,142.26454 L 160.31994,142.41054 L 160.32794,142.55954 C 160.44294,144.99454 159.65994,146.92454 158.25394,148.75254 C 156.84794,150.58054 154.78594,152.23054 152.54694,153.70554 L 148.14094,156.60554 L 153.35894,157.35254 C 156.64694,157.82254 159.18694,155.89554 161.05894,154.64254 C 167.85294,150.07454 170.16894,141.12454 169.45094,133.29554 V 133.23554 L 169.43794,133.17554 C 168.40094,126.33454 165.91494,121.51454 161.67794,119.88954 A 7.916,7.916 0 0 0 159.19494,119.37754 Z"
     fill="#932c2c"
     fill-opacity="1"
     id="path44120" />
  <path
     class="petal2End invis"
     d="M 140.64594,110.33654 C 136.30194,110.30554 132.29594,112.51954 129.48594,115.76254 C 124.30894,121.64554 124.83994,129.83954 124.46594,136.26254 L 124.48094,136.14554 C 123.63294,143.43154 125.34594,150.58454 128.00194,156.96954 L 128.00994,156.98354 V 156.99854 C 130.28794,162.25754 133.17294,168.62554 139.21494,171.28954 L 139.28894,171.32654 L 139.37094,171.35654 C 146.23294,173.70154 152.73494,170.15154 157.98094,167.42254 L 157.98794,167.41454 C 161.96194,165.89754 164.40394,161.89754 164.67594,157.64754 L 165.06594,151.55754 L 161.14594,156.23854 C 159.48394,158.22454 158.01594,160.08854 156.34194,161.23554 C 153.28394,162.75554 149.72394,163.35554 146.27194,163.16854 H 146.18994 C 143.30894,163.12854 140.63894,160.76954 138.85194,157.68454 L 138.82294,157.62554 L 138.78594,157.57554 C 136.37494,153.99354 136.28594,148.97954 136.32094,143.95354 V 143.88754 C 136.09394,135.20254 140.92794,127.03454 147.39394,122.22154 L 147.42294,122.19954 L 147.45994,122.17054 C 152.10494,118.42454 159.19294,117.90054 164.15694,120.18454 L 168.56594,122.21554 L 166.86594,117.66654 C 166.65994,117.11654 166.15594,116.95654 165.82594,116.55354 C 165.22694,115.82454 164.69294,114.99354 163.94994,114.52954 C 162.79694,113.81154 161.55894,113.27354 160.53994,112.84054 L 160.39394,112.77454 L 160.24494,112.73754 C 153.80894,111.13254 147.19794,110.48154 140.67694,110.33754 H 140.66094 Z"
     fill="#932c2c"
     fill-opacity="1"
     id="path44122" />
  <path
     class="petal petal5"
     d="M 151.01994,130.71154 C 146.04594,130.71154 141.27494,133.71154 139.23594,138.75854 C 137.09794,143.28854 137.61894,149.43854 142.03594,152.55554 L 142.10894,152.60554 L 142.18394,152.65154 C 144.73094,154.13654 147.62694,154.15154 150.15394,153.36554 C 152.98294,152.27754 155.45894,150.95554 156.96094,148.78154 C 158.86694,146.02254 159.26594,142.32154 159.02694,138.94154 C 158.97794,136.94954 158.31694,135.03354 157.12294,133.50854 C 155.91794,131.96854 154.08294,130.81254 151.91994,130.74854 C 151.61994,130.72754 151.31994,130.71154 151.01994,130.71154 Z"
     fill="url(#Y)"
     fill-opacity="1"
     id="path44124"
     style="fill:url(#Y)" />
  <path
     class="petal3End invis"
     d="M 119.91194,101.97354 L 119.05494,102.09854 C 114.16294,102.83554 110.62694,106.18954 107.33194,108.19654 L 107.24394,108.24854 L 107.16994,108.30754 C 103.97094,110.71454 99.119941,112.06154 95.741941,116.43454 L 95.313941,116.98854 L 95.321941,117.69054 C 95.419941,123.54554 96.707941,129.66654 100.12694,134.62354 L 100.13494,134.63954 L 100.14994,134.65254 C 101.47694,136.49954 102.94294,138.69554 104.79994,140.58054 C 106.65894,142.46654 109.00694,144.09354 111.96094,144.41854 L 112.04294,144.42654 L 112.11494,144.43454 C 115.01794,144.52654 117.35494,142.86254 118.87094,140.86954 C 120.38694,138.87754 121.30894,136.48954 121.89094,134.34954 L 121.90394,134.30554 L 121.91194,134.26254 C 123.55594,126.83254 124.59694,119.00554 123.77894,111.16454 L 123.77094,111.09854 L 123.76594,111.03854 C 123.57994,109.93754 123.47594,108.46854 123.12294,106.94254 C 122.76894,105.41654 122.11394,103.70754 120.58994,102.50454 Z"
     fill="#932c2c"
     fill-opacity="1"
     id="path44126" />
  <path
     class="petal petal4"
     d="M 151.01994,130.71154 C 146.04594,130.71154 141.27494,133.71154 139.23594,138.75854 C 137.09794,143.28854 137.61894,149.43854 142.03594,152.55554 L 142.10894,152.60554 L 142.18394,152.65154 C 144.73094,154.13654 147.62694,154.15154 150.15394,153.36554 C 152.98294,152.27754 155.45894,150.95554 156.96094,148.78154 C 158.86694,146.02254 159.26594,142.32154 159.02694,138.94154 C 158.97794,136.94954 158.31694,135.03354 157.12294,133.50854 C 155.91794,131.96854 154.08294,130.81254 151.91994,130.74854 C 151.61994,130.72754 151.31994,130.71154 151.01994,130.71154 Z"
     fill="url(#Z)"
     fill-opacity="1"
     id="path44128"
     style="fill:url(#Z)" />
  <path
     class="petal4End invis"
     d="M 131.89994,90.967539 V 90.988539 C 129.75294,90.966539 128.30694,92.488539 127.56594,93.992539 L 127.54494,94.052539 L 127.51494,94.104539 C 125.21494,99.614539 126.20894,105.86554 128.33394,110.88354 L 129.17594,112.87554 L 131.09594,111.87954 C 134.54294,110.09654 137.59794,108.14954 140.66994,107.84254 C 147.58094,107.73254 154.55194,108.57954 160.86694,111.27454 C 167.67594,114.49254 172.36294,121.85054 177.57194,128.61454 L 177.62294,128.67454 L 177.67594,128.73354 C 181.72394,133.22954 183.22094,140.03554 183.02694,146.60354 L 183.01994,146.69354 L 183.02694,146.77354 C 183.25494,150.97954 181.65694,155.09354 179.12894,158.36354 L 175.64494,162.88154 L 181.18894,161.52954 C 186.74394,160.17954 191.90194,157.54154 196.57994,154.28154 L 196.64594,154.23654 L 196.71294,154.18654 C 198.00794,153.11654 199.76894,152.05354 201.45094,150.62754 C 203.13294,149.20154 204.76594,147.29554 205.38694,144.63354 L 205.40194,144.55954 L 205.41594,144.49254 C 206.47594,137.87654 201.89094,132.97554 199.32594,129.08054 L 199.28894,129.02054 L 199.24394,128.96154 C 194.37594,122.57954 191.40094,114.49554 188.73994,106.35054 L 188.68994,106.20354 L 188.62294,106.05554 C 188.27794,105.38354 187.95294,104.27554 187.46294,103.06554 C 186.97194,101.85554 186.23294,100.41454 184.70294,99.529539 L 184.31794,99.309539 L 183.86894,99.272539 C 172.43494,98.292539 161.02994,97.620539 149.73394,96.289539 L 149.63094,96.281539 H 149.53494 C 144.44494,96.187539 139.47294,92.831539 133.39094,91.283539 A 4.11,4.11 0 0 0 131.95894,90.967539 C 131.93894,90.967539 131.92694,90.981539 131.90594,90.981539 V 90.967539 Z"
     fill="#932c2c"
     fill-opacity="1"
     id="path44130" />
  <path
     class="petal petal6"
     d="M 151.01994,130.71154 C 146.04594,130.71154 141.27494,133.71154 139.23594,138.75854 C 137.09794,143.28854 137.61894,149.43854 142.03594,152.55554 L 142.10894,152.60554 L 142.18394,152.65154 C 144.73094,154.13654 147.62694,154.15154 150.15394,153.36554 C 152.98294,152.27754 155.45894,150.95554 156.96094,148.78154 C 158.86694,146.02254 159.26594,142.32154 159.02694,138.94154 C 158.97794,136.94954 158.31694,135.03354 157.12294,133.50854 C 155.91794,131.96854 154.08294,130.81254 151.91994,130.74854 C 151.61994,130.72754 151.31994,130.71154 151.01994,130.71154 Z"
     fill="url(#aa)"
     fill-opacity="1"
     id="path44132"
     style="fill:url(#aa)" />
  <path
     class="ring"
     d="M 151.25694,292.21388 C 229.10523,292.21388 292.21388,229.10523 292.21388,151.25694 C 292.21388,73.409648 229.10422,10.301997 151.25694,10.303"
     opacity="1"
     fill="none"
     stroke="url(#ab)"
     stroke-width="20.606"
     stroke-miterlimit="40"
     stroke-opacity="1"
     stop-color="#000000"
     stroke-dasharray="none"
     stroke-linecap="round"
     id="path44134"
     style="stroke:url(#ab)" />
  <path
     class="petal petal7"
     d="M 151.01994,130.71154 C 146.04594,130.71154 141.27494,133.71154 139.23594,138.75854 C 137.09794,143.28854 137.61894,149.43854 142.03594,152.55554 L 142.10894,152.60554 L 142.18394,152.65154 C 144.73094,154.13654 147.62694,154.15154 150.15394,153.36554 C 152.98294,152.27754 155.45894,150.95554 156.96094,148.78154 C 158.86694,146.02254 159.26594,142.32154 159.02694,138.94154 C 158.97794,136.94954 158.31694,135.03354 157.12294,133.50854 C 155.91794,131.96854 154.08294,130.81254 151.91994,130.74854 C 151.61994,130.72754 151.31994,130.71154 151.01994,130.71154 Z"
     fill="url(#ac)"
     fill-opacity="1"
     id="path44136"
     style="fill:url(#ac)" />
  <path
     class="ring"
     d="M 151.25694,10.303 C 73.410651,10.303 10.304004,73.410651 10.303,151.25694 C 10.303,229.10523 73.409648,292.21287 151.25694,292.21388"
     opacity="1"
     fill="none"
     stroke="url(#ad)"
     stroke-width="20.606"
     stroke-miterlimit="40"
     stroke-opacity="1"
     stop-color="#000000"
     stroke-dasharray="none"
     stroke-linecap="round"
     id="path44138"
     style="stroke:url(#ad)" />
  <path
     class="petal8"
     d="M 151.01994,130.71154 C 146.04594,130.71154 141.27494,133.71154 139.23594,138.75854 C 137.09794,143.28854 137.61894,149.43854 142.03594,152.55554 L 142.10894,152.60554 L 142.18394,152.65154 C 144.73094,154.13654 147.62694,154.15154 150.15394,153.36554 C 152.98294,152.27754 155.45894,150.95554 156.96094,148.78154 C 158.86694,146.02254 159.26594,142.32154 159.02694,138.94154 C 158.97794,136.94954 158.31694,135.03354 157.12294,133.50854 C 155.91794,131.96854 154.08294,130.81254 151.91994,130.74854 C 151.61994,130.72754 151.31994,130.71154 151.01994,130.71154 Z"
     fill="url(#ae)"
     fill-opacity="1"
     id="path44140"
     style="fill:url(#ae)" />
</svg>
